<?xml version="1.0" encoding="iso-8859-1"?>
<!-- Generator: Adobe Illustrator 19.0.0, SVG Export Plug-In . SVG Version: 6.00 Build 0)  -->
<svg version="1.1" id="Layer_1" xmlns="http://www.w3.org/2000/svg" xmlns:xlink="http://www.w3.org/1999/xlink" x="0px" y="0px"
	 viewBox="0 0 496.2 496.2" style="enable-background:new 0 0 496.2 496.2;" xml:space="preserve">
<path style="fill:#E04F5F;" d="M496.2,248.1C496.2,111.1,385.1,0,248.1,0S0,111.1,0,248.1s111.1,248.1,248.1,248.1
	S496.2,385.1,496.2,248.1z"/>
<path style="fill:#3A3A38;" d="M403.4,364.3c0,13.6-11.1,24.7-24.7,24.7H117.4c-13.6,0-24.7-11.1-24.7-24.7v-64.8h310.7L403.4,364.3
	L403.4,364.3z"/>
<path style="fill:#EAE4DA;" d="M378.8,107.2H117.4c-13.6,0-24.7,11.1-24.7,24.7V242h310.7V131.9
	C403.4,118.2,392.4,107.2,378.8,107.2z"/>
<rect x="92.8" y="241.9" style="fill:#F4EFEA;" width="310.7" height="45.3"/>
<rect x="92.8" y="287.2" style="fill:#D8CEBC;" width="310.7" height="12.3"/>
<rect x="318.1" y="120.5" style="fill:#61586B;" width="68.9" height="63.8"/>
<circle style="fill:#444049;" cx="352.5" cy="152.4" r="27.8"/>
<circle style="fill:#2F2E30;" cx="352.5" cy="152.4" r="16.1"/>
<path style="fill:#6C6B6D;" d="M344.3,144.2c3.9-3.9,10.3-3.9,14.2,0c3.9,3.9-10.3,18.2-14.2,14.2
	C340.4,154.5,340.4,148.1,344.3,144.2z"/>
<path style="fill:#372F47;" d="M179.5,177.8c0,3-2.4,5.4-5.4,5.4h-60.4c-3,0-5.4-2.4-5.4-5.4v-20c0-3,2.4-5.4,5.4-5.4h60.4
	c3,0,5.4,2.4,5.4,5.4V177.8z"/>
<rect x="229.1" y="287.2" style="fill:#F490F4;" width="7.6" height="12.3"/>
<rect x="236.7" y="287.2" style="fill:#E23030;" width="7.5" height="12.3"/>
<rect x="244.2" y="287.2" style="fill:#F46311;" width="7.5" height="12.3"/>
<rect x="251.7" y="287.2" style="fill:#F7D116;" width="7.5" height="12.3"/>
<rect x="229.1" y="242" style="fill:#F9B2F6;" width="7.6" height="45.2"/>
<rect x="229.1" y="217.2" style="fill:#F490F4;" width="7.6" height="24.7"/>
<rect x="236.7" y="242" style="fill:#EA4949;" width="7.5" height="45.2"/>
<rect x="236.7" y="217.2" style="fill:#E23030;" width="7.5" height="24.7"/>
<rect x="244.2" y="242" style="fill:#F27A2A;" width="7.5" height="45.2"/>
<rect x="244.2" y="217.2" style="fill:#F46311;" width="7.5" height="24.7"/>
<rect x="251.7" y="242" style="fill:#F9DE3A;" width="7.5" height="45.2"/>
<rect x="251.7" y="217.2" style="fill:#F7D116;" width="7.5" height="24.7"/>
<rect x="259.3" y="242" style="fill:#4ABC96;" width="7.5" height="45.2"/>
<g>
	<rect x="259.3" y="217.2" style="fill:#44AD87;" width="7.5" height="24.7"/>
	<rect x="259.3" y="287.2" style="fill:#44AD87;" width="7.5" height="12.3"/>
</g>
<circle style="fill:#D8CEBC;" cx="248.1" cy="170.6" r="56.9"/>
<circle style="fill:#E8E8E8;" cx="248.1" cy="176.1" r="54.9"/>
<circle style="fill:#1F1C37;" cx="248.1" cy="176.1" r="51.4"/>
<circle style="fill:#403C55;" cx="248.1" cy="170.9" r="24.7"/>
<path style="fill:#666477;" d="M234.4,157.3c8.2-8.2,21.4-8.2,29.6,0c8.2,8.2-21.4,37.8-29.6,29.6
	C226.3,178.7,226.3,165.5,234.4,157.3z"/>
<circle style="fill:#FCFAEE;" cx="143.9" cy="215.2" r="23.3"/>
<circle style="fill:#EA4949;" cx="143.9" cy="215.2" r="18.5"/>
<circle style="fill:#3E3D3F;" cx="337.9" cy="215.2" r="18.5"/>
<path style="fill:#515151;" d="M319.3,215.2c0-10.2,8.3-18.5,18.5-18.5s18.5,8.3,18.5,18.5H319.3z"/>
<circle style="fill:#2F2E30;" cx="337.9" cy="215.2" r="12.5"/>
<rect x="112.6" y="348.9" style="fill:#232322;" width="270.9" height="14.4"/>
<g>
</g>
<g>
</g>
<g>
</g>
<g>
</g>
<g>
</g>
<g>
</g>
<g>
</g>
<g>
</g>
<g>
</g>
<g>
</g>
<g>
</g>
<g>
</g>
<g>
</g>
<g>
</g>
<g>
</g>
</svg>
